<svg width="20" height="20" viewBox="0 0 20 20" fill="none" xmlns="http://www.w3.org/2000/svg">
<path d="M10 12.6667C9.47258 12.6667 8.95701 12.5103 8.51848 12.2173C8.07995 11.9242 7.73816 11.5078 7.53632 11.0205C7.33449 10.5332 7.28168 9.99704 7.38457 9.47976C7.48747 8.96248 7.74144 8.48732 8.11438 8.11438C8.48732 7.74144 8.96248 7.48747 9.47976 7.38457C9.99704 7.28168 10.5332 7.33449 11.0205 7.53632C11.5078 7.73816 11.9242 8.07995 12.2173 8.51848C12.5103 8.95701 12.6667 9.47258 12.6667 10C12.6658 10.707 12.3846 11.3847 11.8846 11.8846C11.3847 12.3846 10.707 12.6658 10 12.6667ZM10 8.66667C9.73629 8.66667 9.47851 8.74487 9.25924 8.89137C9.03998 9.03788 8.86908 9.24612 8.76816 9.48976C8.66724 9.73339 8.64084 10.0015 8.69229 10.2601C8.74373 10.5188 8.87072 10.7563 9.05719 10.9428C9.24366 11.1293 9.48124 11.2563 9.73988 11.3077C9.99852 11.3592 10.2666 11.3328 10.5102 11.2318C10.7539 11.1309 10.9621 10.96 11.1086 10.7408C11.2551 10.5215 11.3333 10.2637 11.3333 10C11.3333 9.64638 11.1929 9.30724 10.9428 9.05719C10.6928 8.80714 10.3536 8.66667 10 8.66667ZM2.66667 12.6667C2.13925 12.6667 1.62368 12.5103 1.18515 12.2173C0.746616 11.9242 0.404823 11.5078 0.202989 11.0205C0.00115542 10.5332 -0.0516535 9.99704 0.0512404 9.47976C0.154134 8.96248 0.40811 8.48732 0.78105 8.11438C1.15399 7.74144 1.62914 7.48747 2.14643 7.38457C2.66371 7.28168 3.19989 7.33449 3.68716 7.53632C4.17443 7.73816 4.5909 8.07995 4.88392 8.51848C5.17694 8.95701 5.33333 9.47258 5.33333 10C5.33245 10.707 5.05122 11.3847 4.55131 11.8846C4.05141 12.3846 3.37364 12.6658 2.66667 12.6667ZM2.66667 8.66667C2.40296 8.66667 2.14517 8.74487 1.92591 8.89137C1.70664 9.03788 1.53575 9.24612 1.43483 9.48976C1.33391 9.73339 1.30751 10.0015 1.35895 10.2601C1.4104 10.5188 1.53739 10.7563 1.72386 10.9428C1.91033 11.1293 2.14791 11.2563 2.40655 11.3077C2.66519 11.3592 2.93328 11.3328 3.17691 11.2318C3.42055 11.1309 3.62879 10.96 3.77529 10.7408C3.9218 10.5215 4 10.2637 4 10C4 9.64638 3.85953 9.30724 3.60948 9.05719C3.35943 8.80714 3.02029 8.66667 2.66667 8.66667ZM6 20C5.47258 20 4.95701 19.8436 4.51848 19.5506C4.07995 19.2576 3.73816 18.8411 3.53632 18.3538C3.33449 17.8666 3.28168 17.3304 3.38457 16.8131C3.48747 16.2958 3.74144 15.8207 4.11438 15.4477C4.48732 15.0748 4.96248 14.8208 5.47976 14.7179C5.99704 14.615 6.53322 14.6678 7.02049 14.8697C7.50776 15.0715 7.92424 15.4133 8.21725 15.8518C8.51027 16.2903 8.66667 16.8059 8.66667 17.3333C8.66579 18.0403 8.38455 18.7181 7.88464 19.218C7.38474 19.7179 6.70697 19.9991 6 20ZM6 16C5.73629 16 5.47851 16.0782 5.25924 16.2247C5.03998 16.3712 4.86908 16.5795 4.76816 16.8231C4.66724 17.0667 4.64084 17.3348 4.69229 17.5935C4.74373 17.8521 4.87072 18.0897 5.05719 18.2761C5.24366 18.4626 5.48124 18.5896 5.73988 18.641C5.99852 18.6925 6.26661 18.6661 6.51025 18.5652C6.75388 18.4643 6.96212 18.2934 7.10863 18.0741C7.25514 17.8548 7.33333 17.597 7.33333 17.3333C7.33333 16.9797 7.19286 16.6406 6.94281 16.3905C6.69276 16.1405 6.35362 16 6 16ZM14 20C13.4726 20 12.957 19.8436 12.5185 19.5506C12.0799 19.2576 11.7382 18.8411 11.5363 18.3538C11.3345 17.8666 11.2817 17.3304 11.3846 16.8131C11.4875 16.2958 11.7414 15.8207 12.1144 15.4477C12.4873 15.0748 12.9625 14.8208 13.4798 14.7179C13.997 14.615 14.5332 14.6678 15.0205 14.8697C15.5078 15.0715 15.9242 15.4133 16.2173 15.8518C16.5103 16.2903 16.6667 16.8059 16.6667 17.3333C16.6658 18.0403 16.3846 18.7181 15.8846 19.218C15.3847 19.7179 14.707 19.9991 14 20ZM14 16C13.7363 16 13.4785 16.0782 13.2592 16.2247C13.04 16.3712 12.8691 16.5795 12.7682 16.8231C12.6672 17.0667 12.6408 17.3348 12.6923 17.5935C12.7437 17.8521 12.8707 18.0897 13.0572 18.2761C13.2437 18.4626 13.4812 18.5896 13.7399 18.641C13.9985 18.6925 14.2666 18.6661 14.5102 18.5652C14.7539 18.4643 14.9621 18.2934 15.1086 18.0741C15.2551 17.8548 15.3333 17.597 15.3333 17.3333C15.3333 16.9797 15.1929 16.6406 14.9428 16.3905C14.6928 16.1405 14.3536 16 14 16ZM17.3333 12.6667C16.8059 12.6667 16.2903 12.5103 15.8518 12.2173C15.4133 11.9242 15.0715 11.5078 14.8697 11.0205C14.6678 10.5332 14.615 9.99704 14.7179 9.47976C14.8208 8.96248 15.0748 8.48732 15.4477 8.11438C15.8207 7.74144 16.2958 7.48747 16.8131 7.38457C17.3304 7.28168 17.8666 7.33449 18.3538 7.53632C18.8411 7.73816 19.2576 8.07995 19.5506 8.51848C19.8436 8.95701 20 9.47258 20 10C19.9991 10.707 19.7179 11.3847 19.218 11.8846C18.7181 12.3846 18.0403 12.6658 17.3333 12.6667ZM17.3333 8.66667C17.0696 8.66667 16.8118 8.74487 16.5926 8.89137C16.3733 9.03788 16.2024 9.24612 16.1015 9.48976C16.0006 9.73339 15.9742 10.0015 16.0256 10.2601C16.0771 10.5188 16.2041 10.7563 16.3905 10.9428C16.577 11.1293 16.8146 11.2563 17.0732 11.3077C17.3319 11.3592 17.5999 11.3328 17.8436 11.2318C18.0872 11.1309 18.2955 10.96 18.442 10.7408C18.5885 10.5215 18.6667 10.2637 18.6667 10C18.6667 9.64638 18.5262 9.30724 18.2761 9.05719C18.0261 8.80714 17.687 8.66667 17.3333 8.66667ZM14 5.33333C13.4726 5.33333 12.957 5.17694 12.5185 4.88392C12.0799 4.5909 11.7382 4.17443 11.5363 3.68716C11.3345 3.19989 11.2817 2.66371 11.3846 2.14643C11.4875 1.62914 11.7414 1.15399 12.1144 0.78105C12.4873 0.40811 12.9625 0.154134 13.4798 0.0512404C13.997 -0.0516535 14.5332 0.00115542 15.0205 0.202989C15.5078 0.404823 15.9242 0.746616 16.2173 1.18515C16.5103 1.62368 16.6667 2.13925 16.6667 2.66667C16.6658 3.37364 16.3846 4.05141 15.8846 4.55131C15.3847 5.05122 14.707 5.33245 14 5.33333ZM14 1.33333C13.7363 1.33333 13.4785 1.41153 13.2592 1.55804C13.04 1.70455 12.8691 1.91279 12.7682 2.15642C12.6672 2.40006 12.6408 2.66815 12.6923 2.92679C12.7437 3.18543 12.8707 3.42301 13.0572 3.60948C13.2437 3.79595 13.4812 3.92293 13.7399 3.97438C13.9985 4.02583 14.2666 3.99942 14.5102 3.89851C14.7539 3.79759 14.9621 3.62669 15.1086 3.40743C15.2551 3.18816 15.3333 2.93038 15.3333 2.66667C15.3333 2.31305 15.1929 1.97391 14.9428 1.72386C14.6928 1.47381 14.3536 1.33333 14 1.33333ZM6 5.33333C5.47258 5.33333 4.95701 5.17694 4.51848 4.88392C4.07995 4.5909 3.73816 4.17443 3.53632 3.68716C3.33449 3.19989 3.28168 2.66371 3.38457 2.14643C3.48747 1.62914 3.74144 1.15399 4.11438 0.78105C4.48732 0.40811 4.96248 0.154134 5.47976 0.0512404C5.99704 -0.0516535 6.53322 0.00115542 7.02049 0.202989C7.50776 0.404823 7.92424 0.746616 8.21725 1.18515C8.51027 1.62368 8.66667 2.13925 8.66667 2.66667C8.66579 3.37364 8.38455 4.05141 7.88464 4.55131C7.38474 5.05122 6.70697 5.33245 6 5.33333ZM6 1.33333C5.73629 1.33333 5.47851 1.41153 5.25924 1.55804C5.03998 1.70455 4.86908 1.91279 4.76816 2.15642C4.66724 2.40006 4.64084 2.66815 4.69229 2.92679C4.74373 3.18543 4.87072 3.42301 5.05719 3.60948C5.24366 3.79595 5.48124 3.92293 5.73988 3.97438C5.99852 4.02583 6.26661 3.99942 6.51025 3.89851C6.75388 3.79759 6.96212 3.62669 7.10863 3.40743C7.25514 3.18816 7.33333 2.93038 7.33333 2.66667C7.33333 2.31305 7.19286 1.97391 6.94281 1.72386C6.69276 1.47381 6.35362 1.33333 6 1.33333Z" fill="black"/>
</svg>
