<svg width="20" height="20" viewBox="16 0 20 20" fill="none" xmlns="http://www.w3.org/2000/svg">
<path d="M36 20H34.5714V16.4286C34.5703 15.4817 34.1937 14.574 33.5241 13.9044C32.8546 13.2349 31.9469 12.8583 31 12.8571V11.4286C32.3255 11.4305 33.5962 11.9579 34.5334 12.8951C35.4707 13.8324 35.9981 15.1031 36 16.4286V20ZM30.2857 20H28.8571V16.4286C28.856 15.4817 28.4794 14.574 27.8098 13.9044C27.1403 13.2349 26.2326 12.8583 25.2857 12.8571H21C20.0531 12.8583 19.1454 13.2349 18.4759 13.9044C17.8063 14.574 17.4297 15.4817 17.4286 16.4286V20H16V16.4286C16.0019 15.1031 16.5293 13.8324 17.4666 12.8951C18.4038 11.9579 19.6745 11.4305 21 11.4286H25.2857C26.6112 11.4305 27.8819 11.9579 28.8192 12.8951C29.7564 13.8324 30.2838 15.1031 30.2857 16.4286V20ZM28.8571 0V1.42857C29.8043 1.42857 30.7128 1.80485 31.3825 2.47462C32.0523 3.14439 32.4286 4.0528 32.4286 5C32.4286 5.9472 32.0523 6.85561 31.3825 7.52538C30.7128 8.19515 29.8043 8.57143 28.8571 8.57143V10C30.1832 10 31.455 9.47322 32.3927 8.53553C33.3304 7.59785 33.8571 6.32608 33.8571 5C33.8571 3.67392 33.3304 2.40215 32.3927 1.46447C31.455 0.526784 30.1832 0 28.8571 0ZM23.1429 1.42857C23.8492 1.42857 24.5397 1.63803 25.127 2.03047C25.7144 2.4229 26.1721 2.98068 26.4424 3.63327C26.7127 4.28587 26.7835 5.00396 26.6457 5.69675C26.5079 6.38954 26.1677 7.02591 25.6682 7.52538C25.1688 8.02485 24.5324 8.365 23.8396 8.5028C23.1468 8.64061 22.4287 8.56988 21.7761 8.29957C21.1235 8.02926 20.5658 7.5715 20.1733 6.98418C19.7809 6.39686 19.5714 5.70636 19.5714 5C19.5714 4.0528 19.9477 3.14439 20.6175 2.47462C21.2872 1.80485 22.1957 1.42857 23.1429 1.42857ZM23.1429 0C22.154 0 21.1873 0.293245 20.365 0.842652C19.5428 1.39206 18.9019 2.17295 18.5235 3.08658C18.145 4.00021 18.046 5.00555 18.2389 5.97545C18.4319 6.94536 18.9081 7.83627 19.6073 8.53553C20.3066 9.2348 21.1975 9.711 22.1674 9.90393C23.1373 10.0969 24.1426 9.99784 25.0563 9.6194C25.9699 9.24096 26.7508 8.6001 27.3002 7.77785C27.8496 6.95561 28.1429 5.98891 28.1429 5C28.1429 3.67392 27.6161 2.40215 26.6784 1.46447C25.7407 0.526784 24.4689 0 23.1429 0Z" /></svg>
