<svg width="24" height="24" viewBox="0 0 66 66" fill="none" xmlns="http://www.w3.org/2000/svg"><g><path d="m29.3 9.9c.6 0 1-.4 1-1s-.4-1-1-1h-21.8c-.6 0-1 .4-1 1s.4 1 1 1z" fill="white"/><path d="m29.3 18.5h-21.2c-.6 0-1 .4-1 1s.4 1 1 1h21.2c.6 0 1-.4 1-1s-.4-1-1-1z" fill="white"/><path d="m19.4 26.1h-11.3c-.6 0-1 .4-1 1s.4 1 1 1h11.2c.6 0 1-.4 1-1 .1-.5-.4-1-.9-1z" fill="white"/><path d="m19.4 33.8h-11.3c-.6 0-1 .4-1 1s.4 1 1 1h11.2c1.4 0 1.4-2 .1-2z" fill="white"/><path d="m19.4 41.4h-11.3c-.6 0-1 .4-1 1s.4 1 1 1h11.2c.6 0 1-.4 1-1 .1-.6-.4-1-.9-1z" fill="white"/><path d="m36.9 49h-28.8c-.6 0-1 .4-1 1s.4 1 1 1h28.8c.6 0 1-.4 1-1s-.4-1-1-1z" fill="white"/><path d="m36.9 56.6h-28.8c-.6 0-1 .4-1 1s.4 1 1 1h28.8c.6 0 1-.4 1-1 0-.5-.4-1-1-1z" fill="white"/><path d="m63.5 58.7c1.6-1.6 1.6-4.3 0-6l-9.2-9.2c-.4-.4-1-.4-1.4 0l-.1.1-2.6-2.6c1.7-2.8 2.3-6.2 1.8-9.3.1-.4 0 .9.1-19.6v-.1c0-.4-.2-.7-.6-.9-15.3-10.7-14.2-10.1-14.7-10.1h-34.5c-.6 0-1 .4-1 1v62c0 .6.4 1 1 1h48.7c.6 0 1-.4 1-1v-9.8l5 5c1.7 1.7 4.3 1.7 6 0zm-12.2-13.7-2 2-2.3-2.3c.4-.3.7-.6 1.1-.9.3-.3.7-.7 1-1.1zm-21.5-2.6c-4.7-4.7-4.7-12.2 0-16.9s12.2-4.7 16.9 0 4.6 12.3 0 16.9-12.2 4.7-16.9 0zm18.1-31.4h-10.1v-7.1l9.8 6.9zm2.1 52h-46.7v-60h32.5v9c0 .6.4 1 1 1h13.2v13.5c-.5-.9-1.2-1.7-2-2.5-5.4-5.4-14.2-5.5-19.7 0-5.4 5.4-5.4 14.2 0 19.7 4.6 4.6 11.6 5.3 17 2.1l2.6 2.6-.1.1c-.4.4-.4 1 0 1.4l2.2 2.2zm12.1-5.7-.4.4c-.8.8-2.3.8-3.2 0l-8.5-8.5.1-.1 3.4-3.4.1-.1 8.5 8.5c.8.9.8 2.4 0 3.2z" fill="white"/></g></svg>
