<svg width="20" height="20" viewBox="0 0 20 20" fill="none" xmlns="http://www.w3.org/2000/svg">
<path d="M19.9997 15.7143V14.2857H18.3835C18.2838 13.8388 18.0926 13.4137 17.8205 13.0336L18.9666 11.9693L17.8789 10.9593L16.7328 12.0236C16.3234 11.7709 15.8657 11.5934 15.3843 11.5007V10H13.8459V11.5007C13.3645 11.5934 12.9068 11.7709 12.4974 12.0236L11.3512 10.9593L10.2635 11.9693L11.4097 13.0336C11.1376 13.4137 10.9464 13.8388 10.8466 14.2857H9.23047V15.7143H10.8466C10.9464 16.1612 11.1376 16.5863 11.4097 16.9664L10.2635 18.0307L11.3512 19.0407L12.4974 17.9764C12.9068 18.2291 13.3645 18.4066 13.8459 18.4993V20H15.3843V18.4993C15.8657 18.4066 16.3234 18.2291 16.7328 17.9764L17.8789 19.0407L18.9666 18.0307L17.8205 16.9664C18.0926 16.5863 18.2838 16.1612 18.3835 15.7143H19.9997ZM14.6151 17.1429C14.1587 17.1429 13.7125 17.0172 13.333 16.7817C12.9535 16.5463 12.6577 16.2116 12.4831 15.82C12.3084 15.4285 12.2627 14.9976 12.3517 14.5819C12.4408 14.1663 12.6606 13.7845 12.9833 13.4848C13.306 13.1851 13.7172 12.981 14.1649 12.8983C14.6125 12.8156 15.0765 12.8581 15.4982 13.0203C15.9199 13.1824 16.2803 13.4571 16.5339 13.8095C16.7874 14.1619 16.9228 14.5762 16.9228 15C16.9222 15.5681 16.6788 16.1129 16.2462 16.5146C15.8136 16.9163 15.2269 17.1423 14.6151 17.1429Z" fill="black"/>
<path d="M7.69231 17.6193L5.20462 16.3871C4.09665 15.8395 3.17007 15.0222 2.52422 14.0229C1.87837 13.0235 1.53761 11.8798 1.53847 10.7143V1.42857H16.9231V8.57143H18.4615V1.42857C18.4615 1.04969 18.2995 0.686328 18.0109 0.418419C17.7224 0.15051 17.3311 0 16.9231 0H1.53847C1.13044 0 0.739128 0.15051 0.450611 0.418419C0.162093 0.686328 5.80464e-06 1.04969 5.80464e-06 1.42857V10.7143C-0.00179251 12.1388 0.414286 13.5369 1.20357 14.7585C1.99286 15.98 3.12554 16.9789 4.48001 17.6479L7.69231 19.2386V17.6193Z" fill="black"/>
</svg>
